<svg width="101" height="101" viewBox="0 0 101 101" fill="none" xmlns="http://www.w3.org/2000/svg">
<path d="M52.4204 56.6344L71.6585 70.0113V43.3828L63.1495 49.2438L52.4204 56.6344Z" fill="black"/>
<path d="M50.6119 0.805664C22.9979 0.805664 0.61084 23.1891 0.61084 50.8036C0.61084 78.4184 22.9979 100.806 50.6119 100.806C78.2238 100.806 100.611 78.4184 100.611 50.8036C100.611 23.1891 78.2238 0.805664 50.6119 0.805664ZM74.0984 73.4716L27.1194 73.473H25.3521C22.6216 73.473 20.3873 71.2388 20.3873 68.5081V34.5934C20.3873 31.8628 22.6214 29.6286 25.3521 29.6286L76.0166 29.6273C78.747 29.6273 80.9812 31.8613 80.9812 34.5918V36.0309L80.9893 68.5124C80.8707 72.1227 79.3065 73.4113 74.0984 73.4716Z" fill="#333333"/>
<path d="M50.3804 57.7914C50.1483 57.7914 49.9165 57.7218 49.717 57.5832L49.3705 57.3419L29.6118 71.081H71.1631L51.399 57.3384C51.399 57.3384 50.6105 57.7914 50.3804 57.7914Z" fill="black"/>
<path d="M74.6646 30.3474L74.666 30.3462L74.6616 30.3496L74.6646 30.3474Z" fill="black"/>
<path d="M71.1313 31.5073H29.769L50.3826 46.7908L71.1313 31.5073Z" fill="black"/>
<path d="M48.3345 56.6209L29.1149 43.3823L29.104 70.0198L48.3537 56.6345L48.3345 56.6209Z" fill="black"/>
</svg>
