<svg width="100" height="100" viewBox="0 0 100 100" fill="none" xmlns="http://www.w3.org/2000/svg">
<g clip-path="url(#clip0_62_71)">
<path fill-rule="evenodd" clip-rule="evenodd" d="M50 100C77.6142 100 100 77.6142 100 50C100 22.3858 77.6142 0 50 0C22.3858 0 0 22.3858 0 50C0 77.6142 22.3858 100 50 100Z" fill="black"/>
<path fill-rule="evenodd" clip-rule="evenodd" d="M36.4719 73.0386V42.5406H27.0457V73.0386H36.4719ZM36.4719 31.7304C36.4157 29.0011 34.5968 26.9231 31.6418 26.9231C28.6861 26.9231 26.7549 29.0011 26.7549 31.7304C26.7549 34.4004 28.63 36.5385 31.5288 36.5385H31.5849C34.5968 36.5385 36.4719 34.4004 36.4719 31.7304ZM51.8501 73.0386V55.6623C51.8501 54.7324 51.9174 53.8024 52.1908 53.1395C52.9385 51.2805 54.64 49.3561 57.4971 49.3561C61.2399 49.3561 63.5872 51.4803 63.5872 55.6623V73.0386H73.077V55.1973C73.077 45.64 67.9751 41.1928 61.1699 41.1928C55.5902 41.1928 53.141 44.3123 51.7811 46.4355L51.8492 42.3565H42.3758C42.5121 45.2762 42.3758 73.0386 42.3758 73.0386H51.8501Z" fill="white"/>
</g>
<defs>
<clipPath id="clip0_62_71">
<rect width="100" height="100" fill="white"/>
</clipPath>
</defs>
</svg>
