<svg width="590" height="408" viewBox="0 0 590 408" fill="none" xmlns="http://www.w3.org/2000/svg">
<mask id="mask0_42_4" style="mask-type:alpha" maskUnits="userSpaceOnUse" x="0" y="0" width="590" height="408">
<rect width="590" height="408" fill="#D9D9D9"/>
</mask>
<g mask="url(#mask0_42_4)">
<g clip-path="url(#clip0_42_4)">
<rect width="800" height="800" transform="translate(-100 -210)" fill="white"/>
<path d="M144.883 360.577H123.225C122.459 324.02 120.35 289.651 116.901 257.446H116.709L83.7337 360.577H67.2441L34.4658 257.446H34.2775C31.8459 288.366 30.3141 322.743 29.678 360.577H9.93652C11.2088 314.57 14.4063 271.437 19.5164 231.176H46.3601L77.6024 326.259H77.7949L109.23 231.176H134.914C140.539 278.334 143.862 321.471 144.883 360.577ZM238.811 265.105C229.993 312.958 218.358 347.729 203.919 369.433C192.67 386.14 180.344 394.502 166.922 394.502C163.344 394.502 158.929 393.422 153.697 391.28V379.741C156.254 380.109 159.255 380.319 162.704 380.319C168.973 380.319 174.012 378.594 177.854 375.137C182.449 370.927 184.747 366.194 184.747 360.958C184.747 357.367 182.956 350.026 179.382 338.911L155.614 265.101H176.891L193.95 320.303C197.784 332.838 199.383 341.589 198.742 346.574C208.071 321.659 214.587 294.493 218.3 265.097H238.811V265.105Z" fill="#5D87A1"/>
<path d="M527.106 360.577H465.584V231.176H486.28V344.648H527.106V360.577ZM449.479 363.703L425.691 351.964C427.8 350.231 429.818 348.356 431.634 346.184C441.745 334.307 446.788 316.742 446.788 293.476C446.788 250.666 429.989 229.251 396.378 229.251C379.897 229.251 367.04 234.683 357.845 245.552C347.742 257.438 342.699 274.94 342.699 298.08C342.699 320.826 347.169 337.513 356.112 348.097C364.294 357.685 376.628 362.486 393.122 362.486C399.274 362.486 404.92 361.732 410.064 360.213L441.034 378.243L449.479 363.703ZM372.418 334.683C367.178 326.255 364.558 312.72 364.558 294.058C364.558 261.476 374.456 245.167 394.273 245.167C404.631 245.167 412.223 249.067 417.078 256.852C422.309 265.293 424.942 278.707 424.942 297.109C424.942 329.958 415.036 346.385 395.231 346.385C384.869 346.389 377.277 342.501 372.418 334.683ZM333.68 324.71C333.68 335.684 329.654 344.686 321.61 351.738C313.558 358.761 302.76 362.281 289.229 362.281C276.573 362.281 264.302 358.238 252.425 350.194L257.987 339.082C268.207 344.201 277.461 346.745 285.768 346.745C293.565 346.745 299.659 345.017 304.078 341.589C308.494 338.149 311.126 333.323 311.126 327.221C311.126 319.533 305.765 312.962 295.93 307.459C286.86 302.479 268.722 292.066 268.722 292.066C258.891 284.901 253.969 277.209 253.969 264.536C253.969 254.048 257.64 245.581 264.985 239.14C272.338 232.674 281.826 229.451 293.456 229.451C305.468 229.451 316.387 232.67 326.222 239.04L321.233 250.156C312.821 246.581 304.518 244.794 296.327 244.794C289.694 244.794 284.571 246.389 281.01 249.591C277.419 252.78 275.205 256.86 275.205 261.866C275.205 269.516 280.679 276.171 290.782 281.783C299.973 286.772 318.563 297.364 318.563 297.364C328.645 304.517 333.68 312.138 333.68 324.71Z" fill="#F8981D"/>
<path d="M553.088 187.834C540.574 187.516 530.886 188.776 522.754 192.216C520.406 193.154 516.673 193.154 516.347 196.121C517.615 197.376 517.761 199.402 518.862 201.135C520.737 204.261 524.005 208.467 526.989 210.66C530.266 213.171 533.556 215.657 537.004 217.846C543.086 221.608 549.979 223.797 555.905 227.547C559.358 229.728 562.789 232.549 566.246 234.896C567.945 236.148 569.034 238.178 571.239 238.96V238.483C570.134 237.077 569.82 235.043 568.736 233.478L564.041 228.949C559.504 222.856 553.867 217.536 547.786 213.167C542.78 209.718 531.832 205.031 529.802 199.264L529.484 198.946C532.924 198.624 537.005 197.376 540.273 196.418C545.592 195.016 550.443 195.334 555.901 193.932C558.412 193.304 560.902 192.517 563.421 191.743V190.333C560.592 187.516 558.575 183.775 555.599 181.113C547.639 174.237 538.867 167.511 529.802 161.882C524.947 158.747 518.703 156.73 513.534 154.064C511.672 153.122 508.533 152.658 507.436 151.093C504.632 147.652 503.054 143.124 501.02 139.052C496.5 130.46 492.11 120.926 488.21 111.84C485.389 105.746 483.673 99.6609 480.233 94.0235C464.12 67.4477 446.622 51.3515 419.728 35.5524C413.948 32.2629 407.072 30.8609 399.727 29.1366L387.996 28.5172C385.493 27.4207 382.986 24.445 380.801 23.0388C371.879 17.4139 348.906 5.2225 342.344 21.3187C338.117 31.4928 348.596 41.4954 352.196 46.6557C354.853 50.2382 358.298 54.3146 360.156 58.3826C361.257 61.0401 361.566 63.861 362.667 66.6692C365.17 73.5496 367.509 81.2043 370.799 87.6244C372.515 90.8972 374.385 94.3374 376.578 97.3005C377.834 99.0331 380.019 99.799 380.496 102.624C378.315 105.738 378.144 110.438 376.892 114.347C371.267 132.012 373.465 153.897 381.437 166.879C383.932 170.788 389.883 179.393 397.843 176.095C404.891 173.282 403.33 164.372 405.356 156.558C405.82 154.671 405.515 153.432 406.452 152.193V152.499C408.633 156.872 410.834 161.087 412.856 165.473C417.706 173.127 426.152 181.104 433.187 186.407C436.933 189.236 439.9 194.074 444.592 195.803V195.334H444.282C443.332 193.932 441.943 193.304 440.695 192.216C437.875 189.399 434.752 185.959 432.564 182.837C426.01 174.077 420.209 164.38 415.061 154.374C412.542 149.519 410.37 144.212 408.34 139.366C407.394 137.495 407.394 134.674 405.824 133.732C403.472 137.168 400.045 140.144 398.329 144.354C395.353 151.088 395.043 159.371 393.939 167.984L393.323 168.285C388.343 167.034 386.61 161.882 384.719 157.508C380.035 146.401 379.249 128.572 383.312 115.757C384.401 112.48 389.109 102.159 387.23 99.0373C386.288 96.0449 383.158 94.3416 381.442 91.9853C379.424 89.0222 377.215 85.2723 375.808 81.9827C372.058 73.2316 370.171 63.5345 366.132 54.7875C364.245 50.7112 360.968 46.4925 358.314 42.7384C355.335 38.5197 352.058 35.5483 349.701 30.547C348.923 28.8269 347.831 26.0144 349.082 24.1437C349.387 22.8881 350.024 22.4194 351.271 22.1055C353.296 20.3937 359.084 22.57 361.114 23.5117C366.911 25.8554 371.757 28.0442 376.595 31.3254C378.784 32.8949 381.132 35.8663 383.94 36.649H387.23C392.223 37.7371 397.852 36.9503 402.552 38.3649C410.834 41.0267 418.338 44.9314 425.068 49.1459C445.546 62.1325 462.433 80.5849 473.834 102.624C475.704 106.215 476.499 109.504 478.207 113.25C481.501 120.917 485.573 128.735 488.842 136.239C492.127 143.584 495.257 151.084 499.949 157.186C502.288 160.467 511.688 162.187 515.903 163.908C519.021 165.31 523.876 166.557 526.688 168.277C532.007 171.554 537.306 175.316 542.307 178.92C544.797 180.795 552.624 184.704 553.088 187.834ZM393.608 51.9667C391.449 51.9443 389.298 52.2089 387.209 52.7535V53.0674H387.51C388.77 55.5659 390.959 57.2986 392.52 59.4791C393.78 61.986 394.872 64.472 396.106 66.9747L396.408 66.665C398.613 65.1039 399.71 62.6012 399.71 58.8471C398.76 57.7422 398.613 56.6625 397.822 55.5659C396.902 54.0007 394.872 53.2223 393.608 51.9667Z" fill="#5D87A1"/>
<path d="M567.978 360.556H571.218V344.703H566.359L562.395 355.522L558.089 344.703H553.41V360.556H556.469V348.495H556.641L561.152 360.556H563.484L567.978 348.495V360.556ZM541.884 360.556H545.311V347.39H549.798V344.699H537.209V347.39H541.875L541.884 360.556Z" fill="#F8981D"/>
<mask id="mask1_42_4" style="mask-type:alpha" maskUnits="userSpaceOnUse" x="-199" y="-26" width="998" height="432">
<rect x="-199" y="-26" width="998" height="432" fill="#D9D9D9"/>
</mask>
<g mask="url(#mask1_42_4)">
</g>
</g>
</g>
<defs>
<clipPath id="clip0_42_4">
<rect width="800" height="800" fill="white" transform="translate(-100 -210)"/>
</clipPath>
</defs>
</svg>
